<svg width="26" height="20" viewBox="0 0 26 20" fill="none" xmlns="http://www.w3.org/2000/svg">
<path d="M23.5727 19.828H2.4289C1.1539 19.828 0.144531 18.8186 0.144531 17.5436V2.40302C0.144531 1.12802 1.1539 0.118652 2.4289 0.118652H23.5727C24.8477 0.118652 25.857 1.12802 25.857 2.40302V17.5436C25.857 18.8186 24.8477 19.828 23.5727 19.828ZM2.4289 1.65926C2.0039 1.65926 1.68515 1.97802 1.68515 2.40302V17.5436C1.68515 17.9686 2.0039 18.2874 2.4289 18.2874H23.5727C23.9977 18.2874 24.3164 17.9686 24.3164 17.5436V2.40302C24.3164 1.97802 23.9977 1.65926 23.5727 1.65926H2.4289Z" fill="black"/>
<path d="M0.888672 3.19971H25.1137V7.71533H0.888672V3.19971Z" fill="black"/>
<path d="M3.17188 10.7437H3.91563V12.2843H3.17188V10.7437Z" fill="black"/>
<path d="M4.66016 10.7437H5.45703V12.2843H4.66016V10.7437Z" fill="black"/>
<path d="M6.20117 10.7437H6.94492V12.2843H6.20117V10.7437Z" fill="black"/>
<path d="M8.48438 10.7437H9.22813V12.2843H8.48438V10.7437Z" fill="black"/>
<path d="M9.97266 10.7437H10.7164V12.2843H9.97266V10.7437Z" fill="black"/>
<path d="M11.5137 10.7437H12.2574V12.2843H11.5137V10.7437Z" fill="black"/>
<path d="M13.7441 10.7437H14.4879V12.2843H13.7441V10.7437Z" fill="black"/>
<path d="M15.2852 10.7437H16.0289V12.2843H15.2852V10.7437Z" fill="black"/>
<path d="M16.7734 10.7437H17.5172V12.2843H16.7734V10.7437Z" fill="black"/>
<path d="M19.0566 10.7437H19.8004V12.2843H19.0566V10.7437Z" fill="black"/>
<path d="M20.5449 10.7437H21.3418V12.2843H20.5449V10.7437Z" fill="black"/>
<path d="M22.0859 10.7437H22.8297V12.2843H22.0859V10.7437Z" fill="black"/>
</svg>
