<svg width="23" height="22" viewBox="0 0 23 22" fill="none" xmlns="http://www.w3.org/2000/svg">
<path d="M15.4891 4.20348C16.0749 3.61769 16.0749 2.66794 15.4891 2.08216C14.9033 1.49637 13.9536 1.49638 13.3678 2.08217L15.4891 4.20348ZM6.57129 11L5.51063 9.93935C4.92484 10.5251 4.92484 11.4749 5.51063 12.0607L6.57129 11ZM13.3678 19.9178C13.9536 20.5036 14.9033 20.5036 15.4891 19.9178C16.0749 19.332 16.0749 18.3823 15.4891 17.7965L13.3678 19.9178ZM13.3678 2.08217L5.51063 9.93935L7.63195 12.0607L15.4891 4.20348L13.3678 2.08217ZM5.51063 12.0607L13.3678 19.9178L15.4891 17.7965L7.63195 9.93935L5.51063 12.0607Z" fill="#6F8797"/>
</svg>
