<svg width="15" height="15" viewBox="0 0 15 15" fill="none" xmlns="http://www.w3.org/2000/svg">
<path d="M10.5607 3.06066C11.1464 2.47487 11.1464 1.52512 10.5607 0.939337C9.97487 0.353552 9.02512 0.353555 8.43934 0.939343L10.5607 3.06066ZM4 7.50003L2.93934 6.43937C2.35355 7.02516 2.35355 7.97491 2.93934 8.56069L4 7.50003ZM8.43934 14.0607C9.02513 14.6465 9.97487 14.6465 10.5607 14.0607C11.1464 13.4749 11.1464 12.5252 10.5607 11.9394L8.43934 14.0607ZM8.43934 0.939343L2.93934 6.43937L5.06066 8.56069L10.5607 3.06066L8.43934 0.939343ZM2.93934 8.56069L8.43934 14.0607L10.5607 11.9394L5.06066 6.43937L2.93934 8.56069Z" fill="#6F8797"/>
</svg>
