<svg width="75" height="23" viewBox="0 0 75 23" fill="none" xmlns="http://www.w3.org/2000/svg">
<path fill-rule="evenodd" clip-rule="evenodd" d="M5.81359 23H7.55825V13.8H5.81359V23ZM12.209 22.862H13.7716V17.0574L20.349 23V13.938H18.7908V19.6434L12.209 13.8V22.862ZM23.9163 20.6339C24.7667 21.2879 25.7876 21.666 26.882 21.666C27.9481 21.666 28.6959 21.3038 28.6959 20.5038C28.6959 19.8066 28.2189 19.5335 27.3837 19.228L26.0316 18.7644C24.785 18.3274 23.8369 17.6892 23.8369 16.2222C23.8369 14.6532 25.2721 13.8 26.9883 13.8C28.0398 13.8 28.9981 14.0609 29.7466 14.5231V16.0792C28.9682 15.5113 28.1163 15.1203 27.0218 15.1203C26.0796 15.1203 25.3755 15.4675 25.3755 16.1913C25.3755 16.8453 25.8175 17.107 26.5959 17.37L28.1024 17.8918C29.5624 18.3986 30.2323 19.1842 30.2323 20.4765C30.2323 22.1023 28.7833 23 26.882 23C25.6325 23 24.5701 22.655 23.9163 22.2194V20.6339ZM34.3027 23H36.0466V13.8H34.3027V23ZM44.2282 21.6078C46.1942 21.6078 47.2449 20.3629 47.2449 18.3978C47.2449 16.4184 46.1934 15.1778 44.2282 15.1778H42.284V21.6078H44.2282ZM40.6966 13.8H44.2864C47.0498 13.8 48.8367 15.5969 48.8367 18.3978C48.8367 21.201 47.0498 23 44.2864 23H40.6966V13.8ZM57.5585 13.8V15.1778H53.3374V17.3916H57.1231V18.7536H53.3367V21.6078H57.5585V23H51.7442V13.8H57.5585ZM63.7493 17.9659H65.4801C66.5046 17.9659 67.082 17.411 67.082 16.5578C67.082 15.7047 66.5046 15.1491 65.4801 15.1491H63.7493V17.9666V17.9659ZM63.7493 19.2668V23H62.2092V13.8H65.5092C67.3908 13.8 68.6083 14.7567 68.6083 16.5578C68.6083 18.0981 67.9325 18.9829 66.493 19.21L69.7675 23H68.0155L64.8451 19.2675H63.75L63.7493 19.2668ZM5.20413 4.73656C5.88641 4.49003 6.41796 3.75044 6.41796 2.73341C6.41796 1.03859 5.20413 0.160281 3.26214 0.160281H0V9.62119H3.56505C5.50704 9.62119 6.72087 8.68106 6.72087 6.90934C6.72087 5.90741 6.08374 5.02909 5.20413 4.73656ZM1.53204 4.13569V1.54747H3.24757C4.32524 1.54747 4.90121 1.93272 4.90121 2.82612C4.90121 3.71953 4.32451 4.13569 3.24757 4.13569H1.53204ZM1.53204 5.46106H3.53447C4.59757 5.46106 5.17354 5.98431 5.17354 6.84753C5.17354 7.69494 4.59684 8.23472 3.53519 8.23472H1.53277V5.46034L1.53204 5.46106ZM13.8386 9.775C16.0689 9.775 17.5711 8.44963 17.5711 5.86141V0.160281H15.9932V5.67597C15.9932 7.49441 15.2345 8.34253 13.8386 8.34253C12.4427 8.34253 11.6847 7.49441 11.6847 5.67597V0.160281H10.1068V5.84559C10.1068 8.44963 11.6235 9.775 13.8386 9.775ZM21.2862 8.94269C21.9386 9.40556 23.001 9.775 24.2447 9.775C26.1415 9.775 27.5825 8.81906 27.5825 7.09406C27.5825 5.72269 26.9155 4.89038 25.4585 4.35131L23.957 3.79644C23.183 3.51972 22.7432 3.24228 22.7432 2.54869C22.7432 1.77819 23.4408 1.40875 24.3816 1.40875C25.4738 1.40875 26.3235 1.82419 27.0976 2.42578V0.77625C26.3541 0.283906 25.3981 0.00646875 24.351 0.00646875C22.6369 0.00646875 21.2104 0.915687 21.2104 2.57959C21.2104 4.13569 22.1512 4.81347 23.3949 5.27563L24.7456 5.76869C25.5801 6.09212 26.0505 6.38538 26.0505 7.12497C26.0505 7.97237 25.307 8.35763 24.2447 8.35763C23.1524 8.35763 22.1359 7.95656 21.2862 7.26369V8.94269ZM33.2206 0.160281H31.6434V9.62047H33.2206V0.160281ZM37.7221 9.60897H39.2425V3.45431L45.6415 9.75559V0.145906H44.1255V6.19562L37.7221 0V9.60897ZM55.5015 0.162437V1.57909H51.4049V3.85609H55.0784V5.25694H51.4049V8.19159H55.5015V9.62334H49.8582V0.162437H55.5015ZM59.175 8.93622C59.8274 9.39909 60.8891 9.76853 62.1335 9.76853C64.0296 9.76853 65.4714 8.81331 65.4714 7.08759C65.4714 5.71622 64.8036 4.88462 63.3473 4.34484L61.8451 3.79069C61.0711 3.51325 60.6313 3.23581 60.6313 2.54222C60.6313 1.77172 61.3289 1.40228 62.2697 1.40228C63.3619 1.40228 64.2116 1.81844 64.9857 2.41931V0.7705C64.2422 0.277438 63.2862 0 62.2391 0C60.525 0 59.0985 0.909219 59.0985 2.57312C59.0985 4.12922 60.0393 4.807 61.283 5.26916L62.6337 5.76222C63.4682 6.08566 63.9386 6.37891 63.9386 7.1185C63.9386 7.96591 63.1959 8.35116 62.1328 8.35116C61.0405 8.35116 60.024 7.95081 59.175 7.25722V8.93622ZM68.7036 8.93622C69.3561 9.39909 70.4184 9.76853 71.6621 9.76853C73.559 9.76853 75 8.81331 75 7.08759C75 5.71622 74.3323 4.88462 72.876 4.34484L71.3738 3.79069C70.6005 3.51325 70.16 3.23581 70.16 2.54222C70.16 1.77172 70.8582 1.40228 71.7983 1.40228C72.8905 1.40228 73.741 1.81844 74.5143 2.41931V0.7705C73.7716 0.277438 72.8155 0 71.7684 0C70.0536 0 68.6279 0.909219 68.6279 2.57312C68.6279 4.12922 69.5687 4.807 70.8124 5.26916L72.1631 5.76222C72.9976 6.08566 73.468 6.37891 73.468 7.1185C73.468 7.96591 72.7245 8.35116 71.6621 8.35116C70.5699 8.35116 69.5534 7.95081 68.7036 7.25722V8.93622Z" fill="#6F8797"/>
</svg>
