<svg width="75" height="22" viewBox="0 0 75 22" fill="none" xmlns="http://www.w3.org/2000/svg">
<path d="M64.3062 0C58.4002 0 53.6123 4.76166 53.6123 10.635C53.6123 16.5084 58.4002 21.27 64.3062 21.27C70.2124 21.27 75.0001 16.5084 75.0001 10.635C75.0001 4.76166 70.2124 0 64.3062 0ZM64.3062 16.8824C59.9145 16.8639 56.3435 13.9961 54.4531 10.5589C56.3626 7.14065 59.9525 4.36793 64.3062 4.36793C68.7364 4.36793 72.288 7.12151 74.1595 10.5589C72.2882 13.996 68.7747 16.9015 64.3062 16.8824Z" fill="#6F8797"/>
<path d="M64.3058 16.2749C67.4378 16.2749 69.9769 13.7499 69.9769 10.6351C69.9769 7.52038 67.4378 4.99536 64.3058 4.99536C61.1738 4.99536 58.6348 7.52038 58.6348 10.6351C58.6348 13.7499 61.1738 16.2749 64.3058 16.2749Z" fill="#6F8797"/>
<path d="M17.7258 0.564941H27.2927C31.356 0.564941 34.1849 3.04584 34.1849 5.57774C34.1849 7.47027 33.4648 9.26057 29.4529 10.1302C30.996 10.3348 35.2136 11.4602 35.2136 15.45C35.2136 19.4398 30.7902 21.3835 27.7555 21.3835H17.7256V21.1789H27.6525C30.0185 21.1789 31.5101 20.207 31.5101 15.7569C31.5101 11.3068 29.8642 10.2837 27.8069 10.2326H24.7208V10.028H27.9869C29.3243 10.028 30.7387 9.82336 30.7387 5.52662C30.7387 1.22987 29.0415 0.769428 27.2414 0.769428H24.7211V21.1788H20.9149V0.769428H17.7259V0.564941H17.7258Z" fill="#6F8797"/>
<path d="M4.21764 11.1047C4.21764 3.22737 6.53226 0.414074 9.25823 0.414074C13.1158 0.414074 15.2247 6.0918 15.8934 8.29129V0.669912C15.2247 1.18136 14.9161 1.4372 14.196 1.4372C13.4759 1.4372 12.3958 1.07912 11.8814 0.772156C11.3671 0.465311 10.3384 0.209473 9.30963 0.209473C5.91505 0.209587 0 4.6597 0 11.1047C0 18.7263 5.24644 21.9999 9.30975 21.9999C10.3384 21.9999 11.47 21.5907 11.9843 21.2838C12.4986 20.9768 13.4759 20.5676 14.196 20.5676C14.9161 20.5676 15.2247 20.8233 15.8934 21.3349V13.6622C15.3276 16.629 13.1159 21.7952 9.25823 21.7952C8.15244 21.7952 6.63507 21.2838 5.94075 20.5676C5.72695 20.3472 4.21764 19.2883 4.21764 11.1047Z" fill="#6F8797"/>
<path d="M48.9194 17.2874C48.8679 18.9753 47.582 21.226 44.9074 21.1749C42.2328 21.1238 38.9923 19.1289 37.7579 13.7579V21.0214C38.2723 20.5611 39.1467 19.7427 40.5354 20.3565C41.9241 20.9703 43.9815 21.3795 44.9074 21.3795C45.8332 21.3795 50.9252 20.4076 51.1311 14.5763C51.1825 11.6607 49.0736 10.1773 47.7878 9.71688C46.2962 9.1542 44.1874 8.48927 42.9529 8.08007C41.7185 7.67086 39.7126 6.39213 39.764 4.03916C39.8154 1.6863 41.2555 0.407449 43.2101 0.407449C45.1646 0.407449 47.7878 1.94202 49.125 7.36402V0.151611C48.3535 0.816652 47.7363 1.1235 47.2734 1.1235C46.8619 1.1235 45.6662 0.656295 45.0617 0.471294C44.3931 0.266693 43.7373 0.19001 42.9014 0.202733C41.4354 0.225199 37.9893 1.99303 37.7579 6.7501C37.5888 10.2258 40.1753 11.5583 41.3583 11.9675C42.387 12.3256 45.3702 13.3998 46.2447 13.7578C47.1192 14.116 49.0222 15.3436 48.9194 17.2874Z" fill="#6F8797"/>
</svg>
