<svg width="46" height="21" viewBox="0 0 46 21" fill="none" xmlns="http://www.w3.org/2000/svg">
<path d="M14.5701 0.0106866C14.5701 0.0012207 10.6129 0.0106866 10.6129 0.0106866C4.75544 0.0106866 0.00683594 4.70705 0.00683594 10.5001C0.00683594 16.2932 4.75544 20.9895 10.6129 20.9895L18.0534 20.9834C19.9226 20.9834 21.4379 19.4964 21.4379 17.6477L21.4418 11.2499L26.5846 19.2721C27.2801 20.3132 28.474 20.9999 29.8301 20.9999C31.9769 20.9999 33.7173 19.2787 33.7173 17.1554L33.7162 11.2499L38.8589 19.272C39.5544 20.3131 40.7483 20.9999 42.1044 20.9999C44.2512 20.9999 45.9917 19.2786 45.9917 17.1554L45.9905 0.0012207H43.3444V17.1556C43.3444 17.8328 42.7893 18.3819 42.1045 18.3819C41.6765 18.3819 41.2992 18.1675 41.0764 17.8412L31.9228 3.58168C31.8661 3.50008 31.7845 3.43857 31.6899 3.40614C31.5953 3.37372 31.4927 3.37207 31.3971 3.40146C31.3015 3.43084 31.2178 3.48971 31.1585 3.56945C31.0991 3.64919 31.0671 3.74562 31.0671 3.84464L31.0701 17.1556C31.0701 17.8329 30.5149 18.3819 29.8301 18.3819C29.4022 18.3819 29.0249 18.1676 28.802 17.8413L19.6485 3.58168C19.5918 3.5001 19.5101 3.4386 19.4155 3.40618C19.3209 3.37377 19.2183 3.37213 19.1227 3.40151C19.0271 3.43089 18.9435 3.48975 18.8841 3.56948C18.8248 3.6492 18.7927 3.74563 18.7927 3.84464L18.7907 17.6478C18.7907 18.0505 18.4607 18.3769 18.0534 18.3769L10.613 18.3714C6.21753 18.3713 2.65419 14.8472 2.65419 10.5001C2.65419 6.15305 6.21753 2.62885 10.6129 2.62885L14.5701 2.62596V0.0106866Z" fill="#6F8797"/>
<path d="M14.9976 15.0091C15.0976 15.0091 15.1934 14.9698 15.2641 14.8999C15.3349 14.83 15.3746 14.7351 15.3746 14.6362L15.3756 3.84443C15.3755 1.72132 17.1159 0 19.2627 0C20.6237 0 21.8213 0.691749 22.5158 1.73911L27.6406 9.69006L27.6499 3.8445C27.6499 1.72132 29.3902 0 31.5371 0C32.898 0 34.0956 0.691749 34.7901 1.73911L39.9149 9.69006V0.00114128H42.5792L42.5745 17.1555C42.5745 17.2529 42.5435 17.3478 42.4859 17.4268C42.4283 17.5057 42.347 17.5648 42.2536 17.5956C42.1602 17.6264 42.0594 17.6273 41.9654 17.5983C41.8714 17.5693 41.7891 17.5117 41.73 17.4338L32.5652 3.15886C32.3424 2.83272 31.9651 2.61823 31.5371 2.61823C30.8523 2.61823 30.2972 3.16725 30.2972 3.8445L30.3001 17.1555C30.3001 17.2529 30.2691 17.3478 30.2115 17.4267C30.1539 17.5057 30.0726 17.5648 29.9792 17.5956C29.8858 17.6263 29.785 17.6273 29.691 17.5983C29.597 17.5692 29.5147 17.5117 29.4556 17.4338L20.2909 3.15886C20.0681 2.83272 19.6908 2.61823 19.2627 2.61823C18.578 2.61823 18.0229 3.16725 18.0229 3.8445L18.0284 17.261C18.0284 17.3599 17.9887 17.4547 17.918 17.5246C17.8473 17.5945 17.7514 17.6338 17.6514 17.6338L10.6138 17.6324C6.64401 17.6324 3.42578 14.4262 3.42578 10.5001C3.42578 6.57397 6.64401 3.36765 10.6138 3.36765C10.6138 3.36765 14.571 3.35241 14.571 3.36765V6.01226L10.6138 6.0093C8.1061 6.0093 6.07313 8.0199 6.07313 10.5001C6.07313 12.9802 8.1061 15.0142 10.6138 15.0142L14.9976 15.0091Z" fill="#6F8797"/>
</svg>
