<svg width="98" height="19" viewBox="0 0 98 19" fill="none" xmlns="http://www.w3.org/2000/svg">
<path d="M5.23387 0.588135C2.80555 0.588135 0.87207 2.89887 0.87207 9.31145C0.87207 14.8272 1.95673 18.0339 5.23387 18.0339C8.8178 18.0339 9.24195 14.4976 9.24195 11.5749L6.64852 11.4563C6.60055 13.8849 6.36553 15.4399 5.3515 15.4399C4.40855 15.4399 4.07901 14.8276 4.07901 9.3118C4.07901 3.60617 4.71423 3.18131 5.3515 3.18131C6.10567 3.18131 6.45907 4.2189 6.45907 7.00146L9.19378 6.90688C9.19378 3.84224 8.76954 0.588135 5.23387 0.588135ZM13.9497 0.58846C11.2395 0.58846 9.47089 2.68695 9.47089 9.31177C9.47089 15.9357 11.2395 18.0342 13.9497 18.0342C16.6604 18.0342 18.4288 15.9355 18.4288 9.31177C18.4288 8.39532 18.3938 7.5685 18.3283 6.81888C19.3835 10.3393 23.6579 11.1893 23.6579 13.8139C23.6579 14.4976 23.3045 15.4399 22.2903 15.4399C20.97 15.4399 20.9699 13.7905 20.9699 12.8473V12.847H18.2352C18.2352 15.1582 18.8961 18.0339 22.173 18.0339C23.9744 18.0339 25.2222 17.1583 25.8713 15.8349V17.7041H28.135V5.39794H28.1817L30.2328 17.7041H31.9299L34.0051 5.39794H34.0524V17.7041H36.7868V9.63346C36.8441 16.0013 38.5975 18.0342 41.2635 18.0342C43.7058 18.0342 45.3825 16.3289 45.6908 11.1474V17.7041H48.7553V10.9853H49.9817C52.2238 10.9853 53.4342 9.75311 53.859 7.78012C53.8347 8.2903 53.8226 8.801 53.8228 9.31177C53.8228 15.9356 55.5911 18.0342 58.3013 18.0342C61.0133 18.0342 62.7814 15.9355 62.7814 9.31177C62.7814 2.68695 61.0133 0.588428 58.3013 0.588428C56.1401 0.588428 54.579 1.92584 54.0347 5.82587C53.9964 2.28168 52.1846 0.919104 48.7553 0.919104H45.6908V7.47577C45.3825 2.29353 43.7058 0.588428 41.2635 0.588428C38.5975 0.588428 36.8441 2.6214 36.7868 8.99008V0.919071H32.8023L31.3644 9.52329H31.3177L29.9497 0.919136H25.8713V4.63423C25.5863 2.20226 24.4736 0.588428 22.0554 0.588428C19.4896 0.588428 18.1243 2.59641 18.0954 5.08133C17.4629 1.75315 15.968 0.588428 13.9497 0.588428V0.58846ZM62.8469 0.919136V17.7041H69.8258V15.1106H65.912V0.919136H62.8469ZM70.3166 0.919136V17.7041H73.3811V0.919136H70.3166ZM73.8964 0.919136V3.51228H76.5372V17.7041H79.6019V3.51228H82.208L80.2151 17.7041H82.7847L83.2084 13.9791H85.6854L86.132 17.7041H91.5056V7.54282H91.5528L94.8301 17.7041H97.2108V0.919136H94.7595V9.78253H94.7125L91.9072 0.919136H88.9127V16.3559L87.004 0.919136H82.5722L82.2418 3.27195V0.919136H73.8964ZM13.9497 3.18127C14.6575 3.18127 15.0813 3.91228 15.0813 7.54278V11.0795C15.0813 14.7099 14.6575 15.4398 13.9497 15.4398C13.242 15.4398 12.8179 14.7099 12.8179 11.0795V7.54278C12.8179 3.91228 13.242 3.18127 13.9497 3.18127ZM21.9835 3.18127C23.2096 3.18127 23.2096 4.76113 23.2096 5.70441H25.8713V11.0289C24.4889 8.10191 20.829 7.02818 20.829 4.71413C20.829 3.79462 21.2534 3.18127 21.9835 3.18127ZM41.2635 3.18127C41.9702 3.18127 42.3947 3.91228 42.3947 7.54278V11.0795C42.3947 14.7099 41.9702 15.4398 41.2635 15.4398C40.5562 15.4398 40.1317 14.7099 40.1317 11.0795V7.54278C40.1317 3.91228 40.5562 3.18127 41.2635 3.18127ZM58.3016 3.18127C59.01 3.18127 59.4334 3.91228 59.4334 7.54278V11.0795C59.4334 14.7099 59.01 15.4398 58.3016 15.4398C57.5948 15.4398 57.1704 14.7099 57.1704 11.0795V7.54278C57.1704 3.91228 57.5948 3.18127 58.3016 3.18127ZM48.7802 3.51228H49.0145C50.0284 3.51228 50.9717 3.58267 50.9717 6.01116C50.9717 8.03831 50.2878 8.53397 49.0384 8.53397H48.7802V3.51228ZM84.4812 3.51228H84.5288L85.4242 11.5278H83.5163L84.4812 3.51228Z" fill="#6F8797"/>
</svg>
