<svg width="34" height="34" viewBox="0 0 34 34" fill="none" xmlns="http://www.w3.org/2000/svg">
<path d="M27.5727 26.828H6.4289C5.1539 26.828 4.14453 25.8186 4.14453 24.5436V9.40302C4.14453 8.12802 5.1539 7.11865 6.4289 7.11865H27.5727C28.8477 7.11865 29.857 8.12802 29.857 9.40302V24.5436C29.857 25.8186 28.8477 26.828 27.5727 26.828ZM6.4289 8.65926C6.0039 8.65926 5.68515 8.97802 5.68515 9.40302V24.5436C5.68515 24.9686 6.0039 25.2874 6.4289 25.2874H27.5727C27.9977 25.2874 28.3164 24.9686 28.3164 24.5436V9.40302C28.3164 8.97802 27.9977 8.65926 27.5727 8.65926H6.4289Z" fill="black"/>
<path d="M4.88867 10.1997H29.1137V14.7153H4.88867V10.1997Z" fill="black"/>
<path d="M7.17188 17.7437H7.91563V19.2843H7.17188V17.7437Z" fill="black"/>
<path d="M8.66016 17.7437H9.45703V19.2843H8.66016V17.7437Z" fill="black"/>
<path d="M10.2012 17.7437H10.9449V19.2843H10.2012V17.7437Z" fill="black"/>
<path d="M12.4844 17.7437H13.2281V19.2843H12.4844V17.7437Z" fill="black"/>
<path d="M13.9727 17.7437H14.7164V19.2843H13.9727V17.7437Z" fill="black"/>
<path d="M15.5137 17.7437H16.2574V19.2843H15.5137V17.7437Z" fill="black"/>
<path d="M17.7441 17.7437H18.4879V19.2843H17.7441V17.7437Z" fill="black"/>
<path d="M19.2852 17.7437H20.0289V19.2843H19.2852V17.7437Z" fill="black"/>
<path d="M20.7734 17.7437H21.5172V19.2843H20.7734V17.7437Z" fill="black"/>
<path d="M23.0566 17.7437H23.8004V19.2843H23.0566V17.7437Z" fill="black"/>
<path d="M24.5449 17.7437H25.3418V19.2843H24.5449V17.7437Z" fill="black"/>
<path d="M26.0859 17.7437H26.8297V19.2843H26.0859V17.7437Z" fill="black"/>
</svg>
