<svg width="25" height="25" viewBox="0 0 25 25" fill="none" xmlns="http://www.w3.org/2000/svg">
<path d="M23.9355 7.41211C23.4473 6.9336 22.8125 6.67969 22.1191 6.69922C21.4453 6.70899 20.8203 6.99219 20.3516 7.50001C19.8828 7.99805 19.6387 8.65235 19.6582 9.31641C19.6777 9.89258 19.9023 10.4297 20.2734 10.8594C19.2969 12.0703 18.4082 12.6367 17.5586 12.5684C16.4648 12.4805 15.3027 11.3477 14.082 9.16993C14.4922 8.84766 14.7949 8.41797 14.9512 7.91016C15.166 7.2168 15.0586 6.46485 14.668 5.78125C14.248 5.04883 13.4375 4.63868 12.5 4.66797C12.4902 4.66797 12.4805 4.66797 12.4805 4.66797C11.543 4.63868 10.7324 5.04883 10.3125 5.78125C9.92188 6.46485 9.82422 7.22657 10.0293 7.91016C10.1855 8.40821 10.4883 8.84766 10.8984 9.16993C9.67774 11.3379 8.51563 12.4805 7.42188 12.5684C6.57227 12.6367 5.68359 12.0703 4.70703 10.8594C5.07813 10.4297 5.29297 9.89258 5.32227 9.31641C5.35156 8.65235 5.09766 7.98829 4.62891 7.50001C4.16016 7.00196 3.53516 6.71875 2.86133 6.69922C2.17773 6.68946 1.5332 6.94336 1.04492 7.41211C0.556641 7.89063 0.292969 8.5254 0.292969 9.20899C0.292969 10.5273 1.31836 11.6113 2.60742 11.7188L3.33984 18.8574C3.42773 19.707 4.13086 20.3418 4.98047 20.3418H19.9707C20.8203 20.3418 21.5332 19.707 21.6113 18.8574L22.3438 11.7188C23.6426 11.6211 24.6582 10.5371 24.6582 9.20899C24.6875 8.5254 24.4238 7.89063 23.9355 7.41211ZM22.1777 10.7617C22.1191 10.7617 22.0508 10.752 21.9922 10.752C21.8652 10.7324 21.7383 10.7715 21.6309 10.8496C21.5332 10.9277 21.4648 11.0449 21.4551 11.1816L20.6836 18.7598C20.6445 19.1113 20.3516 19.375 20 19.375H5C4.64844 19.375 4.35547 19.1113 4.31641 18.7598L3.54492 11.1816C3.53516 11.0547 3.4668 10.9375 3.36914 10.8496C3.28125 10.7813 3.17383 10.7422 3.06641 10.7422C3.04688 10.7422 3.02734 10.7422 3.00781 10.7422C2.94922 10.752 2.89063 10.752 2.82227 10.752C1.97266 10.752 1.2793 10.0586 1.2793 9.19922C1.2793 8.7793 1.44531 8.38868 1.74805 8.09571C2.05078 7.80274 2.45117 7.64649 2.86133 7.65625C3.27148 7.66602 3.65234 7.8418 3.94531 8.1543C4.23828 8.45704 4.38477 8.86719 4.375 9.26758C4.35547 9.7168 4.14063 10.1367 3.7793 10.4199C3.57422 10.5859 3.53516 10.8789 3.69141 11.0938C4.99023 12.8223 6.24023 13.6133 7.50977 13.5254C9.0332 13.4082 10.498 12.002 11.9727 9.22852C12.0313 9.11133 12.0508 8.97461 12.002 8.85743C11.9629 8.73047 11.875 8.63282 11.7578 8.57422C11.377 8.38868 11.084 8.03711 10.957 7.63672C10.8203 7.19727 10.8887 6.71875 11.1523 6.26954C11.3867 5.85938 11.8652 5.625 12.4316 5.63477C12.4707 5.64454 12.5098 5.64454 12.5488 5.63477C13.1152 5.625 13.5938 5.84961 13.8281 6.26954C14.0918 6.72852 14.1602 7.19727 14.0234 7.63672C13.8965 8.04688 13.6035 8.38868 13.2227 8.57422C13.1055 8.63282 13.0176 8.73047 12.9785 8.85743C12.9395 8.98438 12.9492 9.1211 13.0078 9.22852C14.4824 12.002 15.9473 13.4082 17.4707 13.5254C18.75 13.6231 20 12.832 21.2891 11.0938C21.4453 10.8789 21.4063 10.5859 21.2012 10.4199C20.8398 10.1367 20.625 9.7168 20.6055 9.26758C20.5859 8.86719 20.7422 8.45704 21.0352 8.1543C21.3281 7.8418 21.709 7.66602 22.1191 7.65625C22.5391 7.64649 22.9395 7.80274 23.2324 8.09571C23.5352 8.38868 23.7012 8.7793 23.7012 9.19922C23.7207 10.0684 23.0273 10.7617 22.1777 10.7617Z" fill="#31556F"/>
</svg>
