<svg width="23" height="25" viewBox="0 0 23 25" fill="none" xmlns="http://www.w3.org/2000/svg">
<path d="M18.2382 14.1602C17.9746 14.1212 17.7304 14.2969 17.6914 14.5508L16.959 19.1114C16.4511 21.7188 14.1465 23.6133 11.5 23.6133C8.85348 23.6133 6.5488 21.7286 6.04098 19.1407L5.2988 14.5606C5.25973 14.2969 5.01559 14.1212 4.75192 14.17C4.48825 14.209 4.31247 14.4532 4.3613 14.7169L5.10348 19.3165C5.69919 22.3731 8.3945 24.5899 11.5 24.5899C14.6054 24.5899 17.291 22.3731 17.8965 19.3067L18.6386 14.7266C18.6777 14.4532 18.5019 14.209 18.2382 14.1602Z" fill="#31556F"/>
<path d="M21.3535 2.70502C20.8262 2.27533 20.1328 2.10932 19.4492 2.2558C18.5801 2.44135 17.8867 3.16401 17.7305 4.04291C17.6133 4.71674 17.7988 5.39057 18.2188 5.88861C17.3887 6.90424 16.6367 7.38275 15.9238 7.32416C14.9961 7.2558 14 6.27924 12.9648 4.43354C13.3164 4.15033 13.5801 3.75971 13.7168 3.31049C13.9023 2.68549 13.7949 1.99213 13.4238 1.3769C13.0332 0.74213 12.2812 0.380802 11.5 0.42963C10.7188 0.371036 9.9668 0.74213 9.58594 1.3769C9.21484 1.99213 9.11719 2.67572 9.29297 3.31049C9.41992 3.74994 9.68359 4.14057 10.0352 4.43354C9 6.27924 8.00391 7.2558 7.07617 7.32416C6.37305 7.38275 5.61133 6.90424 4.78125 5.88861C5.20117 5.3808 5.37695 4.70697 5.25977 4.03315C5.10352 3.15424 4.41016 2.44135 3.54102 2.2558C2.86719 2.10932 2.16406 2.27533 1.63672 2.70502C1.10938 3.13471 0.796875 3.76947 0.796875 4.45307C0.796875 5.62494 1.69531 6.59174 2.84766 6.6894L3.81445 12.705C3.83398 12.8417 3.92188 12.9687 4.04883 13.0371C4.17578 13.1054 4.32227 13.1249 4.45898 13.0663C6.66602 12.2363 9.0293 11.8163 11.4902 11.8163C13.9512 11.8163 16.3145 12.2363 18.5215 13.0663C18.5801 13.0859 18.6289 13.0956 18.6875 13.0956C18.7656 13.0956 18.8535 13.0761 18.9219 13.0273C19.0488 12.9589 19.127 12.832 19.1562 12.6953L20.123 6.67963C21.2754 6.58197 22.1738 5.61518 22.1738 4.4433C22.1934 3.76947 21.8809 3.13471 21.3535 2.70502ZM19.9375 5.7519C19.8887 5.7519 19.8398 5.7519 19.791 5.74213C19.5371 5.71283 19.3027 5.88861 19.2539 6.14252L18.3164 12.0019C16.1582 11.2597 13.8633 10.8886 11.4902 10.8886C9.11719 10.8886 6.82227 11.2597 4.66406 12.0019L3.72656 6.14252C3.6875 5.88861 3.45313 5.71283 3.18945 5.74213C3.14063 5.7519 3.0918 5.7519 3.04297 5.7519C2.33008 5.7519 1.74414 5.16596 1.74414 4.45307C1.74414 4.06244 1.91992 3.69135 2.22266 3.44721C2.53516 3.1933 2.92578 3.10541 3.32617 3.1933C3.82422 3.30072 4.21484 3.71088 4.3125 4.20893C4.40039 4.70697 4.22461 5.17572 3.83398 5.47846C3.62891 5.63471 3.58984 5.92768 3.74609 6.14252C4.88867 7.66596 5.99219 8.36908 7.125 8.28119C8.47266 8.17377 9.76172 6.9433 11.0605 4.5019C11.1191 4.38471 11.1289 4.25776 11.0898 4.1308C11.0508 4.00385 10.9629 3.90619 10.8457 3.8476C10.5137 3.68158 10.2695 3.38861 10.1719 3.04682C10.0645 2.66596 10.1328 2.26557 10.3672 1.87494C10.5625 1.55268 10.9531 1.36713 11.373 1.38666C11.4316 1.39643 11.4902 1.39643 11.5586 1.38666C11.9785 1.36713 12.3789 1.55268 12.5645 1.87494C12.7988 2.26557 12.8672 2.67572 12.7598 3.04682C12.6621 3.38861 12.4082 3.68158 12.0859 3.8476C11.9688 3.90619 11.8809 4.00385 11.8418 4.1308C11.8027 4.25776 11.8125 4.38471 11.8711 4.5019C13.1699 6.9433 14.459 8.17377 15.8066 8.28119C16.9395 8.36908 18.043 7.66596 19.1855 6.14252C19.3418 5.93744 19.3027 5.64447 19.0977 5.47846C18.7168 5.17572 18.541 4.70697 18.6191 4.21869C18.707 3.71088 19.1074 3.30072 19.6055 3.1933C20.0059 3.10541 20.3965 3.1933 20.709 3.44721C21.0117 3.69135 21.1875 4.06244 21.1875 4.45307C21.2363 5.16596 20.6504 5.7519 19.9375 5.7519Z" fill="#31556F"/>
</svg>
