<svg width="25" height="18" viewBox="0 0 25 18" fill="none" xmlns="http://www.w3.org/2000/svg">
<path d="M9.28564 7.85971C9.28564 11.2033 11.2153 14.3367 12.1641 15.6753C12.4218 16.0388 12.9352 16.0388 13.1929 15.6753C14.1417 14.3367 16.0714 11.2033 16.0714 7.85971C16.0714 4.43257 13.9314 1.77814 12.9598 0.749643C12.7033 0.478072 12.2881 0.489429 12.0479 0.7755C11.1689 1.82207 9.28564 4.46093 9.28564 7.85971Z" stroke="#31556F"/>
<path d="M12.857 16.5357C12.857 16.5357 8.74985 14.0357 5.89271 10.2857C3.03557 6.53574 4.8076 2.53714 4.82128 2.4286C4.83496 2.32006 8.21414 3.14289 9.64271 5.28574" stroke="#31556F"/>
<path d="M12.8569 16.3573C12.8569 16.3573 16.7838 13.8906 19.5155 10.1906C22.2473 6.49052 20.553 2.54516 20.5399 2.43806C20.5269 2.33099 17.0799 3.35016 15.7141 5.46449" stroke="#31556F"/>
<path d="M12.4705 16.6158C12.4705 16.6158 16.5892 17.0348 20.5077 13.8494C24.4262 10.6641 24.1463 6.99002 24.1714 6.88438C24.1964 6.77874 22.7276 6.45477 20.7092 7.97802" stroke="#31556F"/>
<path d="M12.5894 16.6309C12.5894 16.6309 8.46409 16.9534 4.63545 13.6979C0.806765 10.4424 1.1849 6.79697 1.16271 6.6914C1.14052 6.58583 2.61635 6.29736 4.59163 7.85744" stroke="#31556F"/>
</svg>
