<svg width="71" height="19" viewBox="0 0 71 19" fill="none" xmlns="http://www.w3.org/2000/svg">
<path d="M33.9481 4.9635C33.3608 4.9635 33.0388 5.02033 32.5652 5.24766C31.6938 5.64549 31.0496 6.2896 30.4813 7.33153L30.2919 7.65359L30.3108 7.06631C30.3298 6.74426 30.3487 6.15699 30.3677 5.74022L30.3866 5.00139H30.254C30.1024 5.00139 25.1012 6.00544 24.9496 6.06227C24.8549 6.10016 24.8359 6.13804 24.8359 6.38432C24.8359 6.6306 24.8549 6.66848 24.9496 6.68743C25.0064 6.70637 25.2338 6.74426 25.4611 6.78215C25.8968 6.85793 26.0294 6.93371 26.2189 7.17998C26.5599 7.6157 26.6167 8.41136 26.6167 11.7266C26.6167 14.4356 26.5599 15.7996 26.4273 16.2164C26.2757 16.7279 25.9915 16.9931 25.499 17.0878C25.3474 17.1257 25.139 17.1636 25.0443 17.1825L24.8738 17.2204L24.8549 17.5614C24.8359 17.8077 24.8549 17.9214 24.9117 17.9593C24.9496 17.9782 26.6546 17.9972 28.7006 17.9972L32.4326 17.9782L32.4515 17.5804C32.4515 17.372 32.4515 17.1825 32.4326 17.1825C32.1484 17.1825 31.258 17.0689 31.1065 16.9931C30.6897 16.8226 30.4813 16.4437 30.3866 15.667C30.2919 14.7766 30.2161 12.5223 30.254 10.7036C30.2919 8.84708 30.2919 8.84707 30.4055 8.71446C30.6708 8.4303 31.3528 8.20297 31.9779 8.20297C32.4705 8.20297 32.982 8.33558 33.5124 8.58185C33.7776 8.71446 34.005 8.79024 34.0428 8.79024C34.1186 8.7713 35.3311 5.53183 35.3311 5.38028C35.3311 5.19083 34.6301 4.9635 33.9481 4.9635Z" fill="#6F8797"/>
<path d="M24.8548 10.5901C24.5896 8.35467 23.6424 6.72546 22.07 5.79719C20.3272 4.7742 17.6939 4.71737 15.8184 5.66458C14.4544 6.34658 13.3557 7.65373 12.8631 9.16927C12.3516 10.7227 12.3516 12.7687 12.8631 14.341C13.1852 15.364 13.6209 16.1029 14.3029 16.7659C15.1175 17.5805 16.1784 18.092 17.4097 18.2625C17.8455 18.3193 19.2284 18.3193 19.683 18.2625C19.8914 18.2246 20.2703 18.1488 20.4976 18.092C22.7141 17.4479 24.2297 15.7429 24.7412 13.3181C24.8738 12.7118 24.9306 11.2721 24.8548 10.5901ZM19.2473 17.2964C17.8644 17.7131 16.8793 16.387 16.5004 13.6401C16.3678 12.7497 16.3867 10.3249 16.5004 9.32082C16.7656 7.10435 17.4476 5.98664 18.5274 5.98664C19.02 5.98664 19.2852 6.1003 19.6641 6.47919C20.5734 7.38851 20.9902 9.13138 20.9902 11.8594C20.9902 14.0379 20.7629 15.4019 20.2893 16.3302C20.043 16.7659 19.6073 17.1827 19.2473 17.2964Z" fill="#6F8797"/>
<path d="M6.66838 1.6863H8.25969C10.0783 1.6863 10.3814 1.72419 11.0256 2.04624C11.9538 2.5009 12.6358 3.41023 13.242 5.00154C13.4883 5.64565 13.4883 5.64565 14.0187 5.47515L14.3787 5.36148L14.3408 3.03134C14.3219 1.74313 14.284 0.606476 14.284 0.511754L14.2461 0.303369L7.29354 0.284424C3.4668 0.284424 0.26522 0.284425 0.170499 0.303369L0 0.341257L0.018944 0.75803L0.0378879 1.1748L0.568327 1.23164C1.25032 1.30741 1.66709 1.5158 1.91337 1.8568C2.46275 2.65246 2.55747 3.75122 2.55747 8.923C2.55747 14.4358 2.44381 15.7808 1.91337 16.4628C1.64815 16.8228 1.42082 16.9364 0.795658 17.0501C-0.0189449 17.2016 0.018944 17.1827 0.018944 17.5995C0.018944 17.8268 0.0378888 17.9594 0.0757773 17.9784C0.170499 18.0162 9.05535 18.0162 9.15007 17.9784C9.26374 17.9405 9.26374 17.2774 9.15007 17.2206C9.09324 17.2016 8.80908 17.1448 8.48702 17.088C8.16497 17.0311 7.82397 16.9554 7.71031 16.9175C7.12304 16.6712 6.80099 15.9703 6.68732 14.701C6.5926 13.7917 6.53577 12.1056 6.53577 10.8743V9.73761L7.08515 9.75655C8.24075 9.79444 8.82802 9.85127 9.0743 9.96494C9.60474 10.1923 10.0215 10.8364 10.2299 11.7457L10.3436 12.2193L10.7603 12.2382L11.1771 12.2572V6.19503L10.7603 6.21397L10.3436 6.23292L10.2299 6.70653C10.0026 7.6348 9.62368 8.20312 9.05535 8.46834C8.82802 8.58201 8.65752 8.60095 8.12708 8.63884C7.76714 8.65778 7.25565 8.67673 7.00937 8.67673H6.53577V7.18013C6.53577 5.68354 6.61154 2.48196 6.66838 1.98941V1.6863Z" fill="#6F8797"/>
<path d="M69.7721 12.3709C69.3554 11.5184 68.5597 10.9501 66.9305 10.2681C65.6044 9.71871 64.9224 9.32089 64.5246 8.88517C64.1836 8.52523 64.0889 8.22212 64.1268 7.69168C64.1646 7.19913 64.2783 6.89602 64.6004 6.55502C64.9982 6.11931 65.5665 5.96775 66.2296 6.11931C67.3094 6.34664 68.0103 7.10441 68.6165 8.69573C68.8249 9.26405 68.8628 9.283 69.2417 9.13144L69.488 9.03672V8.37367C69.488 8.01373 69.469 7.25596 69.4501 6.68763L69.4122 5.66465L69.2228 5.58887C68.2187 5.17209 66.3243 4.90687 65.0929 5.02054C63.691 5.15315 62.6491 5.58887 61.8534 6.42242C61.0578 7.23702 60.6978 8.20317 60.7736 9.33983C60.8304 10.287 61.0957 10.9501 61.6829 11.5563C62.2134 12.1057 62.668 12.3709 63.9752 12.8824C66.0591 13.697 66.6274 14.1896 66.6084 15.1936C66.6084 16.0461 66.1538 16.6713 65.3392 16.9554C65.0361 17.0501 64.2972 17.0501 63.8994 16.9554C62.8575 16.6902 62.0618 15.7809 61.3798 14.1138L61.2093 13.6781L61.0009 13.697C60.8873 13.697 60.7357 13.7349 60.66 13.7728L60.5273 13.8486L60.5463 14.5874C60.5463 14.9852 60.5652 15.8377 60.5842 16.4629L60.6221 17.6185L60.8494 17.7132C61.323 17.9216 62.7628 18.2247 63.6531 18.3194C63.7668 18.3383 64.373 18.3383 65.0171 18.3194C66.1159 18.3005 66.2106 18.3005 66.76 18.1489C68.4081 17.7132 69.469 16.8039 69.9426 15.4209C70.0942 14.9852 70.1131 14.8715 70.1321 14.2274C70.1131 13.356 70.0374 12.9203 69.7721 12.3709Z" fill="#6F8797"/>
<path d="M57.0598 5.47508C55.6769 4.77415 53.5361 4.83098 51.9827 5.58875C50.5051 6.30863 49.4821 7.52106 48.9138 9.22604C48.6106 10.1164 48.5159 10.8174 48.5538 11.973C48.5728 12.6928 48.6106 13.0717 48.6864 13.4127C49.2737 16.027 51.0545 17.7888 53.5551 18.2435C54.1045 18.3382 55.3548 18.3382 55.9042 18.2435C56.6998 18.1109 57.6092 17.751 58.1964 17.3531C58.8974 16.8795 59.6173 16.1596 59.6173 15.9323C59.6173 15.7997 59.371 15.4776 59.2763 15.4776C59.2384 15.4776 59.03 15.5724 58.8405 15.705C58.1586 16.1596 57.4955 16.3301 56.5672 16.3301C55.298 16.3301 54.5023 16.0081 53.6877 15.1935C53.3278 14.8335 53.1762 14.6441 53.0057 14.2842C52.6079 13.5074 52.3805 12.5981 52.3427 11.5751L52.3237 11.1394L56.0557 11.1205L59.7878 11.1015L59.8067 10.8552C59.8067 10.7226 59.8067 10.3627 59.7688 10.0406C59.5415 7.82417 58.6132 6.27074 57.0598 5.47508ZM53.3088 10.0785L52.3616 10.0975V9.88909C52.3616 9.77542 52.3995 9.47232 52.4374 9.22604C52.7594 7.19901 53.5172 5.98658 54.4644 5.98658C55.3359 5.98658 55.8663 7.18006 55.98 9.3776L56.0179 10.0028L55.1464 10.0406C54.6539 10.0406 53.8203 10.0596 53.3088 10.0785Z" fill="#6F8797"/>
<path d="M43.553 5.24756C43.2499 5.19072 42.9847 5.17178 42.4163 5.19073C41.5449 5.22862 40.9576 5.34228 40.2946 5.64539C40.0862 5.74011 39.8968 5.83483 39.8778 5.83483C39.8589 5.83483 39.8589 4.52768 39.8778 2.91742C39.8968 0.644106 39.8968 0 39.8399 0C39.6694 0 34.5355 0.985103 34.4787 1.02299C34.4408 1.06088 34.4219 1.17454 34.4219 1.3261C34.4408 1.61026 34.4029 1.59132 35.0281 1.72393C35.2175 1.76182 35.4449 1.85654 35.5206 1.91337C35.729 2.06492 35.8995 2.38698 36.0321 2.84164C36.1269 3.20158 36.1458 3.4668 36.1837 5.92955C36.2216 8.44914 36.2216 11.0445 36.1458 15.7806L36.1079 17.7508L36.4679 17.8265C36.9983 17.9402 38.5328 18.2054 39.0253 18.2623C39.7642 18.338 41.4691 18.3191 42.0185 18.2433C44.3865 17.8834 46.1673 16.5194 47.0009 14.4166C47.2282 13.8672 47.4366 12.9958 47.5124 12.3706C47.6071 11.6318 47.5502 10.1352 47.4176 9.52896C46.9251 7.2367 45.4853 5.64539 43.553 5.24756ZM39.9536 17.1256C39.8968 16.9551 39.821 11.0445 39.8399 8.69541L39.8589 6.85782L40.1999 6.7631C40.4272 6.70626 40.6924 6.66838 40.9955 6.66838C41.4312 6.66838 41.4691 6.68732 41.8291 6.85782C42.7005 7.29354 43.2878 8.35442 43.5719 9.96468C43.6667 10.5709 43.6856 12.2001 43.5909 12.92C43.3636 14.6818 42.7952 16.1026 42.0185 16.7846C41.7154 17.0498 41.4312 17.2014 41.0713 17.2772C40.8061 17.334 40.7303 17.334 40.2378 17.2961C40.0483 17.2582 40.0104 17.2393 39.9536 17.1256Z" fill="#6F8797"/>
</svg>
