<svg width="13" height="13" viewBox="0 0 13 13" fill="none" xmlns="http://www.w3.org/2000/svg">
<path d="M11.8194 5.81755L9.04605 7.82713L10.1294 11.0771C10.1646 11.1864 10.1642 11.3041 10.1281 11.4132C10.0921 11.5222 10.0224 11.617 9.92897 11.6838C9.83671 11.7503 9.72585 11.7862 9.6121 11.7862C9.49834 11.7862 9.38748 11.7503 9.29522 11.6838L6.50022 9.67963L3.72689 11.6946C3.63463 11.7612 3.52376 11.797 3.41001 11.797C3.29626 11.797 3.18539 11.7612 3.09314 11.6946C2.99973 11.6278 2.92998 11.533 2.89396 11.424C2.85793 11.3149 2.8575 11.1973 2.89272 11.088L3.97605 7.83797L1.18105 5.81755C1.0882 5.75032 1.01907 5.65538 0.983604 5.54637C0.948141 5.43736 0.948174 5.31991 0.983701 5.21092C1.01923 5.10193 1.08841 5.00703 1.18131 4.93986C1.2742 4.87269 1.386 4.83672 1.50064 4.83713H4.92397L6.0073 1.58713C6.04292 1.47876 6.11185 1.3844 6.20425 1.31751C6.29665 1.25061 6.40781 1.2146 6.52189 1.2146C6.63596 1.2146 6.74712 1.25061 6.83952 1.31751C6.93193 1.3844 7.00085 1.47876 7.03647 1.58713L8.1198 4.83713H11.5431C11.6578 4.83672 11.7696 4.87269 11.8625 4.93986C11.9554 5.00703 12.0245 5.10193 12.0601 5.21092C12.0956 5.31991 12.0956 5.43736 12.0602 5.54637C12.0247 5.65538 11.9556 5.75032 11.8627 5.81755H11.8194Z" fill="#8E8E8F"/>
</svg>
