<svg width="25" height="25" viewBox="0 0 25 25" fill="none" xmlns="http://www.w3.org/2000/svg">
<path d="M12.5 22.2636C11.0575 22.2625 8.80632 20.5119 8.15122 19.9753C8.04535 19.8886 7.95758 19.782 7.89292 19.6615C7.82827 19.5409 7.78799 19.4088 7.77438 19.2727C7.76078 19.1366 7.77412 18.9991 7.81365 18.8681C7.85317 18.7372 7.9181 18.6153 8.00473 18.5094C8.09136 18.4035 8.198 18.3158 8.31855 18.2511C8.4391 18.1865 8.57121 18.1462 8.70732 18.1326C8.84344 18.119 8.98091 18.1323 9.11187 18.1718C9.24283 18.2114 9.36472 18.2763 9.47059 18.3629C10.3387 19.1806 11.3735 19.8006 12.504 20.1802C13.7944 20.1192 21.1339 14.8081 21.1339 8.79515C21.1347 8.16283 21.047 7.5335 20.8735 6.92545C20.6409 6.12953 20.1566 5.43046 19.4931 4.93307C18.8296 4.43569 18.0228 4.16679 17.1936 4.16671C16.3521 4.19592 15.5408 4.48711 14.8728 4.99965C14.2048 5.51218 13.7134 6.22048 13.4674 7.0257C13.39 7.21894 13.2565 7.38458 13.0841 7.50126C12.9118 7.61793 12.7084 7.68029 12.5002 7.68029C12.2921 7.68029 12.0887 7.61793 11.9163 7.50126C11.7439 7.38458 11.6104 7.21894 11.5331 7.0257C11.2869 6.22052 10.7956 5.51226 10.1276 4.99974C9.45963 4.48721 8.64832 4.19599 7.80687 4.16671C6.97769 4.16685 6.17088 4.4357 5.50735 4.93298C4.84383 5.43025 4.35932 6.12917 4.12646 6.92499C3.95341 7.5333 3.86593 8.16276 3.86655 8.79521C4.03482 11.2999 5.02636 13.6788 6.68687 15.5615C6.86021 15.7765 6.94104 16.0516 6.91156 16.3262C6.88209 16.6008 6.74473 16.8525 6.52971 17.0258C6.31468 17.1992 6.03961 17.28 5.76499 17.2505C5.49037 17.221 5.23871 17.0837 5.06537 16.8687C3.10229 14.6184 1.94711 11.7769 1.78321 8.79521C1.78253 7.96921 1.89706 7.14714 2.12348 6.35278C2.48197 5.1224 3.22956 4.04134 4.25419 3.27163C5.27883 2.50191 6.52533 2.085 7.80687 2.08337C8.72558 2.08488 9.63066 2.30561 10.4469 2.72722C11.2632 3.14884 11.967 3.75917 12.5 4.50749C13.033 3.75911 13.7369 3.14875 14.5533 2.72713C15.3696 2.30551 16.2748 2.08481 17.1936 2.08337C18.475 2.08488 19.7214 2.50169 20.746 3.27133C21.7706 4.04097 22.5181 5.12197 22.8765 6.35227C23.1034 7.14671 23.2181 7.96898 23.2172 8.7952C23.2172 15.8966 14.9724 22.2636 12.5 22.2636Z" fill="#2A4B64"/>
<path d="M12.1572 16.2949C11.8809 16.2947 11.616 16.1849 11.4207 15.9896L9.15935 13.7283C8.96604 13.5326 8.85803 13.2683 8.85889 12.9932C8.85975 12.7181 8.96941 12.4545 9.16393 12.26C9.35846 12.0655 9.62204 11.9558 9.89714 11.9549C10.1722 11.954 10.4365 12.062 10.6323 12.2553L12.0579 13.6805L15.3223 9.46654C15.4059 9.35785 15.5101 9.26673 15.6289 9.1984C15.7478 9.13007 15.879 9.08588 16.0149 9.06836C16.1509 9.05083 16.289 9.06033 16.4213 9.09629C16.5536 9.13226 16.6775 9.19399 16.7859 9.27794C16.8943 9.36189 16.985 9.46642 17.0529 9.58552C17.1208 9.70462 17.1645 9.83595 17.1816 9.97199C17.1986 10.108 17.1886 10.2461 17.1522 10.3782C17.1157 10.5104 17.0536 10.6341 16.9692 10.7422L12.9806 15.891C12.89 16.0079 12.7756 16.1043 12.6449 16.1735C12.5143 16.2428 12.3703 16.2835 12.2227 16.2928C12.2009 16.2943 12.179 16.2949 12.1572 16.2949Z" fill="#2A4B64"/>
</svg>
