<svg width="25" height="25" viewBox="0 0 25 25" fill="none" xmlns="http://www.w3.org/2000/svg">
<path d="M24.7076 0.0193601C24.6035 -0.0128236 24.4908 -0.0030347 24.3938 0.0466394C24.2967 0.0963136 24.2229 0.181943 24.188 0.285268C23.8737 1.22867 21.5263 1.77432 18.8082 2.40644C15.2806 3.22655 10.8903 4.24728 7.28556 6.72651C5.3702 7.87581 -0.388083 11.3369 2.80553 17.7908C1.40422 19.6452 3.6962e-09 21.5904 3.6962e-09 24.5838C-1.13993e-05 24.6694 0.0263617 24.753 0.0755298 24.8231C0.124698 24.8932 0.194273 24.9464 0.274785 24.9756C0.355297 25.0047 0.442836 25.0083 0.525487 24.986C0.608138 24.9636 0.681887 24.9163 0.736696 24.8505L2.82003 22.3505C2.86619 22.2953 2.89718 22.229 2.90995 22.1582C3.11772 21.0032 3.42508 19.8684 3.82858 18.7664C4.17242 18.7808 4.51711 18.8023 4.85494 18.8282C5.36621 18.8672 5.88074 18.9065 6.39242 18.9065C8.31158 18.9063 10.1837 18.3529 11.637 15.1553C13.1417 11.3933 15.3969 10.2096 17.7848 8.95654C20.5375 7.51183 23.3838 6.0181 24.9833 0.533685C25.0139 0.42893 25.0022 0.316358 24.9506 0.220177C24.899 0.123996 24.8118 0.0518887 24.7076 0.0193601ZM2.11 21.9009L0.930583 23.3163C1.21034 21.8205 1.84699 20.4144 2.78646 19.2174C2.50396 20.0965 2.27801 20.9928 2.11 21.9009ZM17.7892 8.01247L16.853 7.54438C16.8041 7.51971 16.7507 7.50493 16.696 7.50092C16.6413 7.4969 16.5864 7.50371 16.5343 7.52097C16.4823 7.53823 16.4342 7.56559 16.3927 7.60149C16.3512 7.63738 16.3173 7.68111 16.2928 7.73015C16.2682 7.7792 16.2536 7.8326 16.2498 7.8873C16.2459 7.942 16.2529 7.99692 16.2704 8.04892C16.2878 8.10091 16.3153 8.14896 16.3513 8.1903C16.3874 8.23164 16.4312 8.26546 16.4803 8.28983L16.882 8.49071C15.4251 9.18897 14.1074 10.1464 12.9932 11.3163C12.3114 11.5776 11.5834 11.6969 10.8539 11.6671C10.7981 11.665 10.7425 11.6743 10.6904 11.6943C10.6382 11.7144 10.5908 11.7448 10.5508 11.7838C10.5108 11.8228 10.4791 11.8694 10.4577 11.921C10.4363 11.9726 10.4256 12.0279 10.4262 12.0838C10.4266 12.141 10.4386 12.1975 10.4616 12.2499C10.4846 12.3023 10.518 12.3495 10.5599 12.3885C10.6017 12.4275 10.6511 12.4576 10.705 12.4768C10.7589 12.4961 10.8161 12.5041 10.8732 12.5004C11.2958 12.5038 11.718 12.4758 12.1365 12.4166C11.6591 13.1276 11.2565 13.8859 10.9348 14.6795C9.85324 15.3784 9.14447 15.4171 7.91667 15.4171C7.80616 15.4171 7.70018 15.461 7.62204 15.5391C7.5439 15.6173 7.5 15.7233 7.5 15.8338C7.5 15.9443 7.5439 16.0503 7.62204 16.1284C7.70018 16.2065 7.80616 16.2504 7.91667 16.2504C8.71341 16.2954 9.5116 16.1928 10.2711 15.9478C8.7827 18.2902 6.97472 18.1544 4.91842 17.9973C4.66616 17.9781 4.40893 17.9604 4.15021 17.9454C6.57557 12.2023 11.7618 8.02277 20.1424 4.97541C20.246 4.93741 20.3302 4.85989 20.3767 4.75986C20.4232 4.65983 20.4282 4.54545 20.3905 4.44178C20.3528 4.33812 20.2755 4.25363 20.1756 4.20683C20.0757 4.16003 19.9614 4.15474 19.8576 4.19213C12.4386 6.89009 7.4471 10.468 4.5992 15.2114C4.59034 15.2237 4.58212 15.2365 4.57459 15.2497C4.20973 15.8697 3.808 16.4674 3.37156 17.0393C2.5426 15.1674 2.55653 13.5922 3.01375 12.2827C3.07469 12.7067 3.19544 13.1199 3.37241 13.51C3.39555 13.5595 3.42822 13.6041 3.46858 13.6411C3.50893 13.678 3.55617 13.7067 3.60759 13.7254C3.65901 13.7441 3.71362 13.7525 3.76829 13.7501C3.82295 13.7477 3.87661 13.7345 3.9262 13.7114C3.97579 13.6882 4.02033 13.6556 4.05729 13.6152C4.09425 13.5749 4.1229 13.5276 4.1416 13.4762C4.16031 13.4248 4.1687 13.3702 4.1663 13.3155C4.1639 13.2608 4.15075 13.2072 4.12762 13.1576C3.8303 12.4222 3.69987 11.6301 3.74574 10.8382C4.51674 9.7681 5.48351 8.85378 6.59491 8.14361C6.14391 8.82049 5.88107 9.60514 5.83333 10.4171C5.83333 10.5276 5.87723 10.6336 5.95537 10.7117C6.03351 10.7899 6.13949 10.8338 6.25 10.8338C6.36051 10.8338 6.46649 10.7899 6.54463 10.7117C6.62277 10.6336 6.66667 10.5276 6.66667 10.4171C6.66667 10.0852 6.80677 8.85419 8.57375 6.89011C10.4857 5.77566 12.5332 4.91204 14.6657 4.32056L14.6273 4.39741C14.5783 4.49622 14.5704 4.61042 14.6055 4.715C14.6405 4.81957 14.7156 4.90599 14.8142 4.95531C14.9129 5.00464 15.0271 5.01284 15.1318 4.97813C15.2364 4.94342 15.3231 4.86862 15.3727 4.77013L15.7503 4.01506C16.8776 3.71186 17.9745 3.45574 18.9968 3.21801C20.9583 2.76208 22.5865 2.38346 23.6605 1.84065C22.209 5.52664 20.0683 6.80769 17.7892 8.01247Z" fill="#31556F"/>
</svg>
