<svg width="11" height="20" viewBox="0 0 11 20" fill="none" xmlns="http://www.w3.org/2000/svg">
<path d="M10.4896 3.20348C11.0754 2.61769 11.0754 1.66794 10.4896 1.08216C9.90379 0.496374 8.95404 0.496377 8.36826 1.08217L10.4896 3.20348ZM1.57178 10L0.511114 8.93935C-0.0746694 9.52514 -0.074668 10.4749 0.511117 11.0607L1.57178 10ZM8.36826 18.9178C8.95405 19.5036 9.90379 19.5036 10.4896 18.9178C11.0754 18.332 11.0754 17.3823 10.4896 16.7965L8.36826 18.9178ZM8.36826 1.08217L0.511114 8.93935L2.63244 11.0607L10.4896 3.20348L8.36826 1.08217ZM0.511117 11.0607L8.36826 18.9178L10.4896 16.7965L2.63244 8.93935L0.511117 11.0607Z" fill="#6F8797"/>
</svg>
