<svg width="25" height="25" viewBox="0 0 25 25" fill="none" xmlns="http://www.w3.org/2000/svg">
<path d="M23.7498 11.5001C23.5233 11.5001 22.7513 11.5001 22.5248 11.5001C21.8343 11.5001 21.2748 11.9479 21.2748 12.5001C21.2748 13.0524 21.8343 13.5001 22.5248 13.5001C22.7513 13.5001 23.5233 13.5001 23.7498 13.5001C24.4403 13.5001 24.9998 13.0524 24.9998 12.5001C24.9998 11.9479 24.4403 11.5001 23.7498 11.5001ZM12.4999 5.62544C8.68691 5.62544 5.62494 8.68741 5.62494 12.5001C5.62494 16.3131 8.68691 19.3753 12.4999 19.3753C16.3128 19.3753 19.3748 16.3131 19.3748 12.5001C19.3748 8.68741 16.3128 5.62544 12.4999 5.62544ZM12.4999 17.5001C9.73715 17.5001 7.49993 15.2626 7.49993 12.5001C7.49993 9.7379 9.73715 7.49993 12.4999 7.49993C15.2621 7.49993 17.4998 9.7379 17.4998 12.5001C17.4998 15.2626 15.2621 17.5001 12.4999 17.5001ZM3.72446 12.5001C3.72446 11.9479 3.19022 11.5001 2.49997 11.5001C2.26948 11.5001 1.47999 11.5001 1.24999 11.5001C0.559494 11.5001 0 11.9479 0 12.5001C0 13.0524 0.559494 13.5001 1.24999 13.5001C1.47999 13.5001 2.26948 13.5001 2.49997 13.5001C3.19047 13.5001 3.72446 13.0524 3.72446 12.5001ZM12.4999 3.74996C13.0521 3.74996 13.4999 3.19047 13.4999 2.49997C13.4999 2.27123 13.4999 1.47899 13.4999 1.24999C13.4999 0.559494 13.0521 0 12.4999 0C11.9476 0 11.4999 0.559494 11.4999 1.24999C11.4999 1.47899 11.4999 2.27123 11.4999 2.49997C11.4999 3.19047 11.9476 3.74996 12.4999 3.74996ZM12.4999 21.25C11.9476 21.25 11.4999 21.8095 11.4999 22.5C11.4999 22.7288 11.4999 23.521 11.4999 23.75C11.4999 24.4405 11.9476 25 12.4999 25C13.0521 25 13.4999 24.4405 13.4999 23.75C13.4999 23.521 13.4999 22.7288 13.4999 22.5C13.4999 21.8095 13.0521 21.25 12.4999 21.25ZM21.7068 4.70745C22.195 4.21946 22.2743 3.50671 21.8835 3.11622C21.4928 2.72572 20.7805 2.80522 20.2928 3.29297C20.158 3.42772 19.5526 4.03321 19.4178 4.16796C18.9296 4.6562 18.8503 5.36845 19.2411 5.75869C19.6316 6.14944 20.344 6.07044 20.8318 5.58244C20.9665 5.4477 21.5725 4.8422 21.7068 4.70745ZM4.16746 19.4181C4.03271 19.5528 3.42722 20.1588 3.29247 20.293C2.80472 20.7808 2.72547 21.4933 3.11572 21.8838C3.50622 22.2743 4.21871 22.1948 4.70645 21.707C4.8412 21.5728 5.4472 20.9673 5.58144 20.8325C6.06969 20.3445 6.14894 19.6318 5.75819 19.2413C5.36745 18.8508 4.6552 18.9303 4.16746 19.4181ZM4.70745 3.29297C4.21921 2.80497 3.50671 2.72547 3.11622 3.11622C2.72572 3.50696 2.80522 4.21921 3.29297 4.7072C3.42772 4.8417 4.03321 5.4477 4.16796 5.58219C4.6562 6.07019 5.3682 6.14944 5.75869 5.75869C6.14919 5.36795 6.07019 4.65595 5.58244 4.16796C5.4477 4.03321 4.8422 3.42772 4.70745 3.29297ZM19.4178 20.8325C19.5526 20.9673 20.1585 21.5728 20.2933 21.7073C20.781 22.195 21.4935 22.2745 21.884 21.884C22.2743 21.4935 22.195 20.781 21.7073 20.2933C21.5725 20.1588 20.967 19.5528 20.8323 19.4183C20.3445 18.9303 19.6316 18.8508 19.2411 19.2416C18.8506 19.6323 18.9301 20.3445 19.4178 20.8325Z" fill="#31556F"/>
</svg>
