<svg width="25" height="25" viewBox="0 0 25 25" fill="none" xmlns="http://www.w3.org/2000/svg">
<path d="M21.5207 7.29162L22.7603 6.05204C22.8349 5.99039 22.8895 5.90801 22.9174 5.81531C22.9452 5.7226 22.9449 5.62374 22.9165 5.5312C22.875 5.42924 22.8022 5.34306 22.7086 5.28504C22.6151 5.22702 22.5055 5.20015 22.3957 5.20829H19.7915V2.60412C19.7997 2.49432 19.7728 2.38476 19.7148 2.29118C19.6568 2.19761 19.5706 2.12482 19.4686 2.08329C19.3744 2.0423 19.2699 2.03131 19.1693 2.05181C19.0686 2.07231 18.9767 2.12331 18.9061 2.19787L17.7082 3.47912C16.1268 2.55969 14.3291 2.07791 12.4999 2.08329C10.19 2.07528 7.94212 2.83072 6.10589 4.23214C4.26965 5.63355 2.94791 7.60241 2.34618 9.83258C1.74445 12.0628 1.89645 14.4292 2.77855 16.5641C3.66065 18.699 5.22341 20.4826 7.22385 21.6375C9.22428 22.7925 11.5503 23.2542 13.8402 22.9507C16.1301 22.6473 18.2556 21.5957 19.8861 19.9596C21.5167 18.3234 22.5609 16.1943 22.8566 13.9034C23.1522 11.6125 22.6825 9.28808 21.5207 7.29162ZM19.2707 6.24995H21.1353L19.0519 8.33329H16.6665V5.94787L18.7499 3.86454V5.72912C18.7499 5.86725 18.8047 5.99973 18.9024 6.0974C19.0001 6.19508 19.1326 6.24995 19.2707 6.24995ZM18.7499 12.5C18.7536 13.8765 18.3027 15.2158 17.4673 16.3098C16.6319 17.4039 15.4586 18.1916 14.1297 18.5505C12.8008 18.9095 11.3905 18.8197 10.1178 18.2951C8.84519 17.7704 7.78133 16.8403 7.09144 15.6491C6.40156 14.4579 6.12423 13.0722 6.30253 11.7073C6.48082 10.3423 7.10476 9.0744 8.07748 8.10037C9.05019 7.12633 10.3173 6.50068 11.682 6.32054C13.0467 6.1404 14.4327 6.41584 15.6249 7.10412V8.63537L15.0415 9.2187C14.2041 8.56935 13.1507 8.26348 12.0957 8.36335C11.0407 8.46322 10.0634 8.96132 9.36263 9.75629C8.6619 10.5513 8.2904 11.5833 8.32373 12.6425C8.35707 13.7017 8.79273 14.7084 9.54206 15.4578C10.2914 16.2071 11.2981 16.6427 12.3573 16.6761C13.4165 16.7094 14.4486 16.3379 15.2435 15.6372C16.0385 14.9365 16.5366 13.9591 16.6365 12.9042C16.7363 11.8492 16.4305 10.7957 15.7811 9.95829L16.3644 9.37495H17.8957C18.4501 10.3234 18.7447 11.4013 18.7499 12.5ZM15.6249 12.5C15.6249 13.118 15.4416 13.7222 15.0982 14.2361C14.7548 14.75 14.2668 15.1506 13.6957 15.3871C13.1247 15.6236 12.4964 15.6855 11.8902 15.5649C11.284 15.4443 10.7272 15.1467 10.2902 14.7097C9.85311 14.2726 9.55548 13.7158 9.43491 13.1096C9.31433 12.5034 9.37621 11.8751 9.61274 11.3041C9.84926 10.733 10.2498 10.245 10.7637 9.90161C11.2776 9.55823 11.8818 9.37495 12.4999 9.37495C13.1464 9.37828 13.7761 9.58209 14.3019 9.95829L12.1353 12.1354C12.0855 12.1821 12.0457 12.2386 12.0186 12.3013C11.9915 12.364 11.9774 12.4316 11.9774 12.5C11.9774 12.5683 11.9915 12.6359 12.0186 12.6986C12.0457 12.7613 12.0855 12.8178 12.1353 12.8645C12.182 12.9144 12.2385 12.9541 12.3012 12.9812C12.3639 13.0084 12.4315 13.0224 12.4999 13.0224C12.5682 13.0224 12.6358 13.0084 12.6985 12.9812C12.7612 12.9541 12.8177 12.9144 12.8644 12.8645L15.0415 10.6979C15.4177 11.2238 15.6215 11.8534 15.6249 12.5ZM12.4999 21.875C11.0726 21.8807 9.66279 21.5604 8.37804 20.9386C7.0933 20.3168 5.96749 19.4098 5.08646 18.2869C4.20543 17.1639 3.59244 15.8546 3.29422 14.4588C2.996 13.063 3.02043 11.6175 3.36564 10.2326C3.71086 8.84764 4.36774 7.55981 5.28621 6.46727C6.20468 5.37473 7.36049 4.50633 8.66551 3.92828C9.97053 3.35022 11.3903 3.07778 12.8166 3.13173C14.2429 3.18567 15.6381 3.56457 16.8957 4.23954L15.7811 5.36454C15.7311 5.41104 15.6913 5.46751 15.6644 5.5303C15.6375 5.59308 15.624 5.66081 15.6249 5.72912V5.91662C14.0723 5.17927 12.3093 5.01403 10.6468 5.45006C8.98429 5.88609 7.52926 6.89536 6.53847 8.29976C5.54769 9.70416 5.08484 11.4134 5.23161 13.1258C5.37838 14.8383 6.12534 16.4438 7.34065 17.6592C8.55597 18.8745 10.1615 19.6214 11.874 19.7682C13.5864 19.915 15.2957 19.4521 16.7001 18.4613C18.1045 17.4706 19.1137 16.0155 19.5498 14.353C19.9858 12.6905 19.8205 10.9275 19.0832 9.37495H19.2707C19.339 9.37579 19.4067 9.36231 19.4695 9.3354C19.5323 9.30849 19.5888 9.26874 19.6353 9.2187L20.7603 8.10412C21.5179 9.53119 21.8938 11.1298 21.8516 12.745C21.8093 14.3601 21.3504 15.9369 20.5193 17.3225C19.6882 18.708 18.5131 19.8552 17.108 20.6529C15.7029 21.4505 14.1156 21.8715 12.4999 21.875Z" fill="#31556F"/>
</svg>
