<svg width="25" height="25" viewBox="0 0 25 25" fill="none" xmlns="http://www.w3.org/2000/svg">
<path d="M24.4641 15.6249C24.2271 15.6249 24.0167 15.4629 23.9589 15.2291C23.9391 15.1504 23.5063 13.5416 21.874 13.5416C20.1469 13.5416 19.2234 15.3202 19.2141 15.3385C19.1255 15.5135 18.9453 15.6244 18.749 15.6244H18.7474C18.5511 15.6234 18.3708 15.5129 18.2828 15.3369C18.2745 15.3202 17.3511 13.5416 15.624 13.5416C13.8969 13.5416 12.9734 15.3202 12.9641 15.3385C12.8656 15.5317 12.6542 15.6421 12.4412 15.6208C12.225 15.5963 12.0464 15.4411 11.9938 15.2301C11.9761 15.165 11.5193 13.5416 9.37397 13.5416C7.20157 13.5416 6.75835 15.2135 6.75418 15.2301C6.69585 15.4624 6.48803 15.6249 6.24897 15.6249C6.00991 15.6249 5.80157 15.4624 5.74376 15.2301C5.72605 15.165 5.26928 13.5416 3.12397 13.5416C2.39845 13.5416 1.85262 13.7213 1.50053 14.0749C1.06251 14.5161 1.05418 15.0947 1.05418 15.1004C1.05574 15.3843 0.83022 15.6176 0.546365 15.6249C0.265115 15.627 0.025532 15.4109 0.013032 15.127C-0.13853 11.69 1.08751 8.42909 3.46616 5.94315C5.84741 3.45409 9.05522 2.08325 12.499 2.08325C15.9427 2.08325 19.1505 3.45409 21.5318 5.94315C23.9104 8.42856 25.1365 11.6905 24.9849 15.127C24.9735 15.3859 24.7735 15.5973 24.5151 15.6223C24.4984 15.6239 24.4813 15.6249 24.4641 15.6249ZM15.624 12.4999C17.1688 12.4999 18.2016 13.4603 18.749 14.1593C19.2964 13.4603 20.3292 12.4999 21.874 12.4999C22.7333 12.4999 23.3922 12.8083 23.8797 13.227C23.5958 10.7713 22.5266 8.48846 20.7797 6.66294C18.5958 4.38169 15.6552 3.12492 12.499 3.12492C9.34272 3.12492 6.40157 4.38169 4.21824 6.66346C2.51928 8.43898 1.46199 10.6463 1.14376 13.0254C1.66043 12.6765 2.32397 12.4999 3.12397 12.4999C4.71355 12.4999 5.70314 13.2223 6.24897 13.9572C6.7948 13.2223 7.78439 12.4999 9.37397 12.4999C11.0406 12.4999 12.0474 13.2937 12.575 14.064C13.1396 13.3765 14.1479 12.4999 15.624 12.4999Z" fill="#31556F"/>
<path d="M12.499 3.125C12.2115 3.125 11.9781 2.89219 11.9781 2.60417V0.520833C11.9781 0.232813 12.2115 0 12.499 0C12.7865 0 13.0198 0.232813 13.0198 0.520833V2.60417C13.0198 2.89219 12.7865 3.125 12.499 3.125Z" fill="#31556F"/>
<path d="M13.8011 24.6093C12.8953 24.6093 11.9781 24.028 11.9781 22.9166V15.1041C11.9781 14.8161 12.2115 14.5833 12.499 14.5833C12.7865 14.5833 13.0198 14.8161 13.0198 15.1041V22.9166C13.0198 23.5494 13.7214 23.5676 13.8011 23.5676C13.8808 23.5676 14.5823 23.5494 14.5823 22.9166C14.5823 22.6286 14.8156 22.3958 15.1031 22.3958C15.3906 22.3958 15.624 22.6286 15.624 22.9166C15.624 24.028 14.7068 24.6093 13.8011 24.6093Z" fill="#31556F"/>
</svg>
