<svg width="76" height="20" viewBox="0 0 76 20" fill="none" xmlns="http://www.w3.org/2000/svg">
<path d="M22.3714 0.570709C17.9992 0.6017 14.4229 5.4193 14.4229 9.62137C14.4229 14.0433 17.0444 19.4374 22.3714 19.4199C27.6983 19.4024 30.4631 13.5952 30.4631 9.62137C30.4631 5.23194 26.7435 0.539719 22.3714 0.570709ZM22.3714 0.735528C26.0307 0.735528 27.0179 4.74228 27.0179 9.62137C27.0179 16.0592 25.8271 19.2353 22.3714 19.2293C18.9156 19.2232 17.7914 16.6237 17.7914 9.62137C17.7914 5.23494 18.712 0.735528 22.3714 0.735528Z" fill="#6F8797"/>
<path d="M31.9063 9.74019C31.8867 4.95891 35.7466 0.723607 39.014 0.513474C40.1942 0.430577 41.7113 0.966406 42.597 1.34811C43.2402 1.62528 44.5531 1.22408 44.7862 0.488037H44.9134V7.00105H44.7862C44.7862 6.7234 43.5696 0.677222 39.014 0.677222C35.6491 0.677222 35.324 6.54313 35.324 9.74019C35.324 12.9373 35.4221 19.2663 39.3488 19.2663C41.251 19.2663 42.659 18.4413 43.024 16.7721V11.6968H41.4273V11.4806H47.6163V11.6968H46.0898V19.1169H45.9655C45.9655 19.1169 45.7173 18.0463 44.4581 18.0498C42.8486 18.0544 41.3307 19.4407 39.4804 19.4238C34.5872 19.3792 31.9259 14.5215 31.9063 9.74019Z" fill="#6F8797"/>
<path d="M2.41923 1.21231H0.492188V0.997559H7.24271V1.21231H5.54916L10.3726 14.1987C11.8809 9.59497 13.0493 6.19192 14.6218 1.21231H12.9466V0.997559H16.511V1.21231H14.8878L9.02544 19.3308L2.41923 1.21231Z" fill="#6F8797"/>
<path d="M48.5611 14.8948L48.5305 1.19135H46.6963V0.986084H53.4541V1.19135H51.6209L51.6616 16.2165C52.0674 17.937 52.7889 19.2424 55.2539 19.2619C57.719 19.2813 59.3948 17.8162 60.0176 15.8139V1.19135H57.9192L57.9192 0.992131H75.0935L75.1293 7.57034H74.9642C74.6457 3.32303 72.9926 1.71786 70.1016 1.24957C69.1068 1.08843 68.0632 1.20789 66.7438 1.19772V9.59325C67.8927 9.68124 69.1165 9.60925 69.9412 8.907C70.6912 8.26841 70.9032 6.793 70.9583 6.1936H71.1035V13.5035H70.9464C70.901 13.5035 70.8406 11.6691 69.9412 10.7988C69.0359 9.92281 67.8831 9.70743 66.7438 9.91613V18.8844C68.3531 18.8844 69.6358 19.0195 70.7498 18.7167C74.136 17.7964 75.328 14.9641 75.3189 12.1235H75.5072V19.0967H62.0361V18.8844H63.5593V1.19135H60.2683V15.8139C59.8953 17.213 58.5321 19.5277 55.0383 19.5119C51.7899 19.4972 48.5681 18.0453 48.5611 14.8948Z" fill="#6F8797"/>
</svg>
