<svg width="16" height="16" viewBox="0 0 16 16" fill="none" xmlns="http://www.w3.org/2000/svg">
<path d="M8.67513 0.950078L10.4001 4.70008C10.4751 4.92508 10.7001 5.07508 10.9251 5.15008L14.8251 5.75008C15.5001 5.75008 15.7251 6.50008 15.2751 6.95008L12.4251 9.87508C12.2751 10.0251 12.2001 10.3251 12.2001 10.5501L12.8751 14.6001C12.9501 15.2001 12.3501 15.7251 11.8251 15.4251L8.30013 13.4751C8.07513 13.3251 7.85013 13.3251 7.62513 13.4751L4.10013 15.4251C3.57513 15.7251 2.90013 15.2751 3.05013 14.6001L3.72513 10.5501C3.80013 10.3251 3.65013 10.0251 3.50013 9.87508L0.65013 6.95008C0.27513 6.50008 0.50013 5.75008 1.10013 5.67508L5.00013 5.07508C5.22513 5.07508 5.45013 4.85008 5.52513 4.62508L7.25013 0.875078C7.62513 0.350079 8.37513 0.350078 8.67513 0.950078Z" fill="#F8D22D"/>
</svg>
