<svg width="15" height="15" viewBox="0 0 15 15" fill="none" xmlns="http://www.w3.org/2000/svg">
<path d="M3.06066 0.93934C2.47487 0.353553 1.52513 0.353553 0.93934 0.93934C0.353553 1.52513 0.353553 2.47487 0.93934 3.06066L3.06066 0.93934ZM11.9393 14.0607C12.5251 14.6464 13.4749 14.6464 14.0607 14.0607C14.6464 13.4749 14.6464 12.5251 14.0607 11.9393L11.9393 14.0607ZM0.93934 11.9393C0.353553 12.5251 0.353553 13.4749 0.93934 14.0607C1.52513 14.6464 2.47487 14.6464 3.06066 14.0607L0.93934 11.9393ZM14.0607 3.06066C14.6464 2.47487 14.6464 1.52513 14.0607 0.93934C13.4749 0.353553 12.5251 0.353553 11.9393 0.93934L14.0607 3.06066ZM0.93934 3.06066L6.43934 8.56066L8.56066 6.43934L3.06066 0.93934L0.93934 3.06066ZM6.43934 8.56066L11.9393 14.0607L14.0607 11.9393L8.56066 6.43934L6.43934 8.56066ZM6.43934 6.43934L0.93934 11.9393L3.06066 14.0607L8.56066 8.56066L6.43934 6.43934ZM8.56066 8.56066L14.0607 3.06066L11.9393 0.93934L6.43934 6.43934L8.56066 8.56066Z" fill="#6F8797"/>
</svg>
