<svg width="18" height="18" viewBox="0 0 18 18" fill="none" xmlns="http://www.w3.org/2000/svg">
<path d="M9.67513 1.95008L11.4001 5.70008C11.4751 5.92508 11.7001 6.07508 11.9251 6.15008L15.8251 6.75008C16.5001 6.75008 16.7251 7.50008 16.2751 7.95008L13.4251 10.8751C13.2751 11.0251 13.2001 11.3251 13.2001 11.5501L13.8751 15.6001C13.9501 16.2001 13.3501 16.7251 12.8251 16.4251L9.30013 14.4751C9.07513 14.3251 8.85013 14.3251 8.62513 14.4751L5.10013 16.4251C4.57513 16.7251 3.90013 16.2751 4.05013 15.6001L4.72513 11.5501C4.80013 11.3251 4.65013 11.0251 4.50013 10.8751L1.65013 7.95008C1.27513 7.50008 1.50013 6.75008 2.10013 6.67508L6.00013 6.07508C6.22513 6.07508 6.45013 5.85008 6.52513 5.62508L8.25013 1.87508C8.62513 1.35008 9.37513 1.35008 9.67513 1.95008Z" fill="#F8D22D"/>
</svg>
